<?xml version="1.0" encoding="utf-8" standalone="no"?>
<!DOCTYPE svg PUBLIC "-//W3C//DTD SVG 1.1//EN"
  "http://www.w3.org/Graphics/SVG/1.1/DTD/svg11.dtd">
<svg xmlns:xlink="http://www.w3.org/1999/xlink" width="288pt" height="432pt" viewBox="0 0 288 432" xmlns="http://www.w3.org/2000/svg" version="1.1">
 <metadata>
  <rdf:RDF xmlns:dc="http://purl.org/dc/elements/1.1/" xmlns:cc="http://creativecommons.org/ns#" xmlns:rdf="http://www.w3.org/1999/02/22-rdf-syntax-ns#">
   <cc:Work>
    <dc:type rdf:resource="http://purl.org/dc/dcmitype/StillImage"/>
    <dc:date>2024-02-26T05:01:18.299589</dc:date>
    <dc:format>image/svg+xml</dc:format>
    <dc:creator>
     <cc:Agent>
      <dc:title>Matplotlib v3.5.1, https://matplotlib.org/</dc:title>
     </cc:Agent>
    </dc:creator>
   </cc:Work>
  </rdf:RDF>
 </metadata>
 <defs>
  <style type="text/css">*{stroke-linejoin: round; stroke-linecap: butt}</style>
 </defs>
 <g id="figure_1">
  <g id="patch_1">
   <path d="M 0 432 
L 288 432 
L 288 0 
L 0 0 
z
" style="fill: #ffffff"/>
  </g>
  <g id="axes_1">
   <g id="patch_2">
    <path d="M 47.743365 238.503687 
L 284.99976 238.503687 
L 284.99976 3.00024 
L 47.743365 3.00024 
z
" style="fill: #ffffff"/>
   </g>
   <g id="patch_3">
    <path d="M 58.527747 238.503687 
L 89.340265 238.503687 
L 89.340265 95.727751 
L 58.527747 95.727751 
z
" clip-path="url(#pea727754aa)" style="fill: #3274a1"/>
   </g>
   <g id="patch_4">
    <path d="M 135.559044 238.503687 
L 166.371563 238.503687 
L 166.371563 189.201817 
L 135.559044 189.201817 
z
" clip-path="url(#pea727754aa)" style="fill: #3274a1"/>
   </g>
   <g id="patch_5">
    <path d="M 212.590341 238.503687 
L 243.40286 238.503687 
L 243.40286 120.806159 
L 212.590341 120.806159 
z
" clip-path="url(#pea727754aa)" style="fill: #3274a1"/>
   </g>
   <g id="patch_6">
    <path d="M 89.340265 238.503687 
L 120.152784 238.503687 
L 120.152784 176.328941 
L 89.340265 176.328941 
z
" clip-path="url(#pea727754aa)" style="fill: #e1812c"/>
   </g>
   <g id="patch_7">
    <path d="M 166.371562 238.503687 
L 197.184081 238.503687 
L 197.184081 212.674875 
L 166.371562 212.674875 
z
" clip-path="url(#pea727754aa)" style="fill: #e1812c"/>
   </g>
   <g id="patch_8">
    <path d="M 243.40286 238.503687 
L 274.215378 238.503687 
L 274.215378 178.339567 
L 243.40286 178.339567 
z
" clip-path="url(#pea727754aa)" style="fill: #e1812c"/>
   </g>
   <g id="matplotlib.axis_1">
    <g id="xtick_1">
     <g id="line2d_1">
      <defs>
       <path id="m76a4010982" d="M 0 0 
L 0 3.5 
" style="stroke: #000000; stroke-width: 0.8"/>
      </defs>
      <g>
       <use xlink:href="#m76a4010982" x="89.340265" y="238.503687" style="stroke: #000000; stroke-width: 0.8"/>
      </g>
     </g>
     <g id="text_1">
      <!-- LMIC-HIC -->
      <g transform="translate(63.248859 253.102125)scale(0.1 -0.1)">
       <defs>
        <path id="DejaVuSerif-4c" d="M 353 0 
L 353 331 
L 947 331 
L 947 4331 
L 353 4331 
L 353 4666 
L 2175 4666 
L 2175 4331 
L 1581 4331 
L 1581 384 
L 3713 384 
L 3713 1166 
L 4097 1166 
L 4097 0 
L 353 0 
z
" transform="scale(0.015625)"/>
        <path id="DejaVuSerif-4d" d="M 353 0 
L 353 331 
L 947 331 
L 947 4331 
L 319 4331 
L 319 4666 
L 1678 4666 
L 3316 1344 
L 4953 4666 
L 6228 4666 
L 6228 4331 
L 5606 4331 
L 5606 331 
L 6203 331 
L 6203 0 
L 4378 0 
L 4378 331 
L 4972 331 
L 4972 3938 
L 3372 684 
L 2931 684 
L 1331 3938 
L 1331 331 
L 1925 331 
L 1925 0 
L 353 0 
z
" transform="scale(0.015625)"/>
        <path id="DejaVuSerif-49" d="M 1581 331 
L 2175 331 
L 2175 0 
L 353 0 
L 353 331 
L 947 331 
L 947 4331 
L 353 4331 
L 353 4666 
L 2175 4666 
L 2175 4331 
L 1581 4331 
L 1581 331 
z
" transform="scale(0.015625)"/>
        <path id="DejaVuSerif-43" d="M 4513 1234 
Q 4306 581 3820 245 
Q 3334 -91 2591 -91 
Q 2134 -91 1743 65 
Q 1353 222 1050 525 
Q 700 875 529 1320 
Q 359 1766 359 2328 
Q 359 3416 987 4083 
Q 1616 4750 2644 4750 
Q 3025 4750 3456 4650 
Q 3888 4550 4384 4347 
L 4384 3272 
L 4031 3272 
Q 3916 3859 3567 4137 
Q 3219 4416 2591 4416 
Q 1844 4416 1459 3886 
Q 1075 3356 1075 2328 
Q 1075 1303 1459 773 
Q 1844 244 2591 244 
Q 3113 244 3450 492 
Q 3788 741 3938 1234 
L 4513 1234 
z
" transform="scale(0.015625)"/>
        <path id="DejaVuSerif-2d" d="M 281 1959 
L 1881 1959 
L 1881 1472 
L 281 1472 
L 281 1959 
z
" transform="scale(0.015625)"/>
        <path id="DejaVuSerif-48" d="M 353 0 
L 353 331 
L 947 331 
L 947 4331 
L 353 4331 
L 353 4666 
L 2175 4666 
L 2175 4331 
L 1581 4331 
L 1581 2719 
L 4000 2719 
L 4000 4331 
L 3406 4331 
L 3406 4666 
L 5228 4666 
L 5228 4331 
L 4634 4331 
L 4634 331 
L 5228 331 
L 5228 0 
L 3406 0 
L 3406 331 
L 4000 331 
L 4000 2338 
L 1581 2338 
L 1581 331 
L 2175 331 
L 2175 0 
L 353 0 
z
" transform="scale(0.015625)"/>
       </defs>
       <use xlink:href="#DejaVuSerif-4c"/>
       <use xlink:href="#DejaVuSerif-4d" x="66.40625"/>
       <use xlink:href="#DejaVuSerif-49" x="168.798828"/>
       <use xlink:href="#DejaVuSerif-43" x="208.300781"/>
       <use xlink:href="#DejaVuSerif-2d" x="284.814453"/>
       <use xlink:href="#DejaVuSerif-48" x="318.603516"/>
       <use xlink:href="#DejaVuSerif-49" x="405.810547"/>
       <use xlink:href="#DejaVuSerif-43" x="445.3125"/>
      </g>
     </g>
    </g>
    <g id="xtick_2">
     <g id="line2d_2">
      <g>
       <use xlink:href="#m76a4010982" x="166.371563" y="238.503687" style="stroke: #000000; stroke-width: 0.8"/>
      </g>
     </g>
     <g id="text_2">
      <!-- HIC-HIC -->
      <g transform="translate(144.359844 253.102125)scale(0.1 -0.1)">
       <use xlink:href="#DejaVuSerif-48"/>
       <use xlink:href="#DejaVuSerif-49" x="87.207031"/>
       <use xlink:href="#DejaVuSerif-43" x="126.708984"/>
       <use xlink:href="#DejaVuSerif-2d" x="203.222656"/>
       <use xlink:href="#DejaVuSerif-48" x="237.011719"/>
       <use xlink:href="#DejaVuSerif-49" x="324.21875"/>
       <use xlink:href="#DejaVuSerif-43" x="363.720703"/>
      </g>
     </g>
    </g>
    <g id="xtick_3">
     <g id="line2d_3">
      <g>
       <use xlink:href="#m76a4010982" x="243.40286" y="238.503687" style="stroke: #000000; stroke-width: 0.8"/>
      </g>
     </g>
     <g id="text_3">
      <!-- LMIC-LMIC -->
      <g transform="translate(213.231766 253.102125)scale(0.1 -0.1)">
       <use xlink:href="#DejaVuSerif-4c"/>
       <use xlink:href="#DejaVuSerif-4d" x="66.40625"/>
       <use xlink:href="#DejaVuSerif-49" x="168.798828"/>
       <use xlink:href="#DejaVuSerif-43" x="208.300781"/>
       <use xlink:href="#DejaVuSerif-2d" x="284.814453"/>
       <use xlink:href="#DejaVuSerif-4c" x="318.603516"/>
       <use xlink:href="#DejaVuSerif-4d" x="385.009766"/>
       <use xlink:href="#DejaVuSerif-49" x="487.402344"/>
       <use xlink:href="#DejaVuSerif-43" x="526.904297"/>
      </g>
     </g>
    </g>
   </g>
   <g id="matplotlib.axis_2">
    <g id="ytick_1">
     <g id="line2d_4">
      <defs>
       <path id="mca12a93a4d" d="M 0 0 
L -3.5 0 
" style="stroke: #000000; stroke-width: 0.8"/>
      </defs>
      <g>
       <use xlink:href="#mca12a93a4d" x="47.743365" y="238.503687" style="stroke: #000000; stroke-width: 0.8"/>
      </g>
     </g>
     <g id="text_4">
      <!-- 0 -->
      <g transform="translate(34.380865 242.302906)scale(0.1 -0.1)">
       <defs>
        <path id="DejaVuSerif-30" d="M 2034 219 
Q 2513 219 2750 744 
Q 2988 1269 2988 2328 
Q 2988 3391 2750 3916 
Q 2513 4441 2034 4441 
Q 1556 4441 1318 3916 
Q 1081 3391 1081 2328 
Q 1081 1269 1318 744 
Q 1556 219 2034 219 
z
M 2034 -91 
Q 1275 -91 848 546 
Q 422 1184 422 2328 
Q 422 3475 848 4112 
Q 1275 4750 2034 4750 
Q 2797 4750 3222 4112 
Q 3647 3475 3647 2328 
Q 3647 1184 3222 546 
Q 2797 -91 2034 -91 
z
" transform="scale(0.015625)"/>
       </defs>
       <use xlink:href="#DejaVuSerif-30"/>
      </g>
     </g>
    </g>
    <g id="ytick_2">
     <g id="line2d_5">
      <g>
       <use xlink:href="#mca12a93a4d" x="47.743365" y="207.725641" style="stroke: #000000; stroke-width: 0.8"/>
      </g>
     </g>
     <g id="text_5">
      <!-- 1 -->
      <g transform="translate(34.380865 211.52486)scale(0.1 -0.1)">
       <defs>
        <path id="DejaVuSerif-31" d="M 909 0 
L 909 331 
L 1722 331 
L 1722 4213 
L 781 3603 
L 781 4013 
L 1919 4750 
L 2350 4750 
L 2350 331 
L 3163 331 
L 3163 0 
L 909 0 
z
" transform="scale(0.015625)"/>
       </defs>
       <use xlink:href="#DejaVuSerif-31"/>
      </g>
     </g>
    </g>
    <g id="ytick_3">
     <g id="line2d_6">
      <g>
       <use xlink:href="#mca12a93a4d" x="47.743365" y="176.947595" style="stroke: #000000; stroke-width: 0.8"/>
      </g>
     </g>
     <g id="text_6">
      <!-- 2 -->
      <g transform="translate(34.380865 180.746814)scale(0.1 -0.1)">
       <defs>
        <path id="DejaVuSerif-32" d="M 819 3553 
L 469 3553 
L 469 4384 
Q 803 4563 1142 4656 
Q 1481 4750 1806 4750 
Q 2534 4750 2956 4397 
Q 3378 4044 3378 3438 
Q 3378 2753 2422 1800 
Q 2347 1728 2309 1691 
L 1131 513 
L 3078 513 
L 3078 1088 
L 3444 1088 
L 3444 0 
L 434 0 
L 434 341 
L 1850 1753 
Q 2319 2222 2519 2614 
Q 2719 3006 2719 3438 
Q 2719 3909 2473 4175 
Q 2228 4441 1797 4441 
Q 1350 4441 1106 4219 
Q 863 3997 819 3553 
z
" transform="scale(0.015625)"/>
       </defs>
       <use xlink:href="#DejaVuSerif-32"/>
      </g>
     </g>
    </g>
    <g id="ytick_4">
     <g id="line2d_7">
      <g>
       <use xlink:href="#mca12a93a4d" x="47.743365" y="146.169549" style="stroke: #000000; stroke-width: 0.8"/>
      </g>
     </g>
     <g id="text_7">
      <!-- 3 -->
      <g transform="translate(34.380865 149.968768)scale(0.1 -0.1)">
       <defs>
        <path id="DejaVuSerif-33" d="M 622 4469 
Q 988 4606 1323 4678 
Q 1659 4750 1953 4750 
Q 2638 4750 3022 4454 
Q 3406 4159 3406 3634 
Q 3406 3213 3140 2930 
Q 2875 2647 2388 2547 
Q 2963 2466 3280 2130 
Q 3597 1794 3597 1259 
Q 3597 606 3158 257 
Q 2719 -91 1894 -91 
Q 1528 -91 1179 -12 
Q 831 66 488 225 
L 488 1131 
L 838 1131 
Q 869 681 1141 450 
Q 1413 219 1906 219 
Q 2384 219 2661 495 
Q 2938 772 2938 1253 
Q 2938 1803 2653 2086 
Q 2369 2369 1819 2369 
L 1522 2369 
L 1522 2688 
L 1678 2688 
Q 2225 2688 2498 2914 
Q 2772 3141 2772 3597 
Q 2772 4006 2547 4223 
Q 2322 4441 1900 4441 
Q 1478 4441 1245 4241 
Q 1013 4041 972 3647 
L 622 3647 
L 622 4469 
z
" transform="scale(0.015625)"/>
       </defs>
       <use xlink:href="#DejaVuSerif-33"/>
      </g>
     </g>
    </g>
    <g id="ytick_5">
     <g id="line2d_8">
      <g>
       <use xlink:href="#mca12a93a4d" x="47.743365" y="115.391503" style="stroke: #000000; stroke-width: 0.8"/>
      </g>
     </g>
     <g id="text_8">
      <!-- 4 -->
      <g transform="translate(34.380865 119.190721)scale(0.1 -0.1)">
       <defs>
        <path id="DejaVuSerif-34" d="M 2234 1581 
L 2234 4063 
L 641 1581 
L 2234 1581 
z
M 3609 0 
L 1484 0 
L 1484 331 
L 2234 331 
L 2234 1247 
L 197 1247 
L 197 1588 
L 2241 4750 
L 2859 4750 
L 2859 1581 
L 3750 1581 
L 3750 1247 
L 2859 1247 
L 2859 331 
L 3609 331 
L 3609 0 
z
" transform="scale(0.015625)"/>
       </defs>
       <use xlink:href="#DejaVuSerif-34"/>
      </g>
     </g>
    </g>
    <g id="ytick_6">
     <g id="line2d_9">
      <g>
       <use xlink:href="#mca12a93a4d" x="47.743365" y="84.613456" style="stroke: #000000; stroke-width: 0.8"/>
      </g>
     </g>
     <g id="text_9">
      <!-- 5 -->
      <g transform="translate(34.380865 88.412675)scale(0.1 -0.1)">
       <defs>
        <path id="DejaVuSerif-35" d="M 3219 4666 
L 3219 4153 
L 1081 4153 
L 1081 2816 
Q 1244 2928 1461 2984 
Q 1678 3041 1947 3041 
Q 2703 3041 3140 2622 
Q 3578 2203 3578 1478 
Q 3578 738 3136 323 
Q 2694 -91 1894 -91 
Q 1572 -91 1234 -12 
Q 897 66 544 225 
L 544 1131 
L 897 1131 
Q 925 688 1179 453 
Q 1434 219 1894 219 
Q 2388 219 2653 544 
Q 2919 869 2919 1478 
Q 2919 2084 2655 2407 
Q 2391 2731 1894 2731 
Q 1613 2731 1398 2631 
Q 1184 2531 1019 2322 
L 750 2322 
L 750 4666 
L 3219 4666 
z
" transform="scale(0.015625)"/>
       </defs>
       <use xlink:href="#DejaVuSerif-35"/>
      </g>
     </g>
    </g>
    <g id="ytick_7">
     <g id="line2d_10">
      <g>
       <use xlink:href="#mca12a93a4d" x="47.743365" y="53.83541" style="stroke: #000000; stroke-width: 0.8"/>
      </g>
     </g>
     <g id="text_10">
      <!-- 6 -->
      <g transform="translate(34.380865 57.634629)scale(0.1 -0.1)">
       <defs>
        <path id="DejaVuSerif-36" d="M 2094 219 
Q 2534 219 2771 542 
Q 3009 866 3009 1472 
Q 3009 2078 2771 2401 
Q 2534 2725 2094 2725 
Q 1647 2725 1412 2412 
Q 1178 2100 1178 1509 
Q 1178 888 1415 553 
Q 1653 219 2094 219 
z
M 1075 2569 
Q 1288 2803 1556 2918 
Q 1825 3034 2163 3034 
Q 2859 3034 3264 2615 
Q 3669 2197 3669 1472 
Q 3669 763 3233 336 
Q 2797 -91 2069 -91 
Q 1278 -91 853 498 
Q 428 1088 428 2181 
Q 428 3406 931 4078 
Q 1434 4750 2350 4750 
Q 2597 4750 2869 4703 
Q 3141 4656 3425 4563 
L 3425 3794 
L 3072 3794 
Q 3034 4109 2831 4275 
Q 2628 4441 2284 4441 
Q 1678 4441 1381 3981 
Q 1084 3522 1075 2569 
z
" transform="scale(0.015625)"/>
       </defs>
       <use xlink:href="#DejaVuSerif-36"/>
      </g>
     </g>
    </g>
    <g id="ytick_8">
     <g id="line2d_11">
      <g>
       <use xlink:href="#mca12a93a4d" x="47.743365" y="23.057364" style="stroke: #000000; stroke-width: 0.8"/>
      </g>
     </g>
     <g id="text_11">
      <!-- 7 -->
      <g transform="translate(34.380865 26.856583)scale(0.1 -0.1)">
       <defs>
        <path id="DejaVuSerif-37" d="M 3609 4347 
L 1784 0 
L 1319 0 
L 3059 4153 
L 903 4153 
L 903 3578 
L 538 3578 
L 538 4666 
L 3609 4666 
L 3609 4347 
z
" transform="scale(0.015625)"/>
       </defs>
       <use xlink:href="#DejaVuSerif-37"/>
      </g>
     </g>
    </g>
    <g id="text_12">
     <!-- average connectivity -->
     <g transform="translate(28.15899 173.515245)rotate(-90)scale(0.1 -0.1)">
      <defs>
       <path id="DejaVuSerif-61" d="M 2547 1044 
L 2547 1747 
L 1806 1747 
Q 1378 1747 1168 1562 
Q 959 1378 959 997 
Q 959 650 1171 447 
Q 1384 244 1747 244 
Q 2106 244 2326 466 
Q 2547 688 2547 1044 
z
M 3122 2075 
L 3122 331 
L 3634 331 
L 3634 0 
L 2547 0 
L 2547 359 
Q 2356 128 2106 18 
Q 1856 -91 1522 -91 
Q 969 -91 644 203 
Q 319 497 319 997 
Q 319 1513 691 1797 
Q 1063 2081 1741 2081 
L 2547 2081 
L 2547 2309 
Q 2547 2688 2317 2895 
Q 2088 3103 1672 3103 
Q 1328 3103 1125 2947 
Q 922 2791 872 2484 
L 575 2484 
L 575 3156 
Q 875 3284 1158 3348 
Q 1441 3413 1709 3413 
Q 2400 3413 2761 3070 
Q 3122 2728 3122 2075 
z
" transform="scale(0.015625)"/>
       <path id="DejaVuSerif-76" d="M 1581 0 
L 359 2988 
L -19 2988 
L -19 3322 
L 1509 3322 
L 1509 2988 
L 978 2988 
L 1913 703 
L 2847 2988 
L 2350 2988 
L 2350 3322 
L 3597 3322 
L 3597 2988 
L 3225 2988 
L 2003 0 
L 1581 0 
z
" transform="scale(0.015625)"/>
       <path id="DejaVuSerif-65" d="M 3469 1600 
L 991 1600 
L 991 1575 
Q 991 903 1244 561 
Q 1497 219 1991 219 
Q 2369 219 2611 417 
Q 2853 616 2950 1006 
L 3413 1006 
Q 3275 459 2904 184 
Q 2534 -91 1931 -91 
Q 1203 -91 761 389 
Q 319 869 319 1663 
Q 319 2450 753 2931 
Q 1188 3413 1894 3413 
Q 2647 3413 3050 2948 
Q 3453 2484 3469 1600 
z
M 2791 1931 
Q 2772 2513 2545 2808 
Q 2319 3103 1894 3103 
Q 1497 3103 1269 2806 
Q 1041 2509 991 1931 
L 2791 1931 
z
" transform="scale(0.015625)"/>
       <path id="DejaVuSerif-72" d="M 3059 3328 
L 3059 2497 
L 2728 2497 
Q 2713 2744 2591 2866 
Q 2469 2988 2234 2988 
Q 1809 2988 1582 2694 
Q 1356 2400 1356 1850 
L 1356 331 
L 2022 331 
L 2022 0 
L 263 0 
L 263 331 
L 781 331 
L 781 2994 
L 231 2994 
L 231 3322 
L 1356 3322 
L 1356 2731 
Q 1525 3078 1790 3245 
Q 2056 3413 2438 3413 
Q 2578 3413 2733 3391 
Q 2888 3369 3059 3328 
z
" transform="scale(0.015625)"/>
       <path id="DejaVuSerif-67" d="M 3359 2988 
L 3359 72 
Q 3359 -644 2965 -1033 
Q 2572 -1422 1844 -1422 
Q 1516 -1422 1216 -1362 
Q 916 -1303 641 -1184 
L 641 -488 
L 941 -488 
Q 997 -813 1206 -963 
Q 1416 -1113 1806 -1113 
Q 2313 -1113 2548 -827 
Q 2784 -541 2784 72 
L 2784 519 
Q 2616 206 2355 57 
Q 2094 -91 1709 -91 
Q 1097 -91 708 395 
Q 319 881 319 1663 
Q 319 2444 706 2928 
Q 1094 3413 1709 3413 
Q 2094 3413 2355 3264 
Q 2616 3116 2784 2803 
L 2784 3322 
L 3909 3322 
L 3909 2988 
L 3359 2988 
z
M 2784 1825 
Q 2784 2422 2554 2737 
Q 2325 3053 1888 3053 
Q 1444 3053 1217 2703 
Q 991 2353 991 1663 
Q 991 975 1217 622 
Q 1444 269 1888 269 
Q 2325 269 2554 583 
Q 2784 897 2784 1497 
L 2784 1825 
z
" transform="scale(0.015625)"/>
       <path id="DejaVuSerif-20" transform="scale(0.015625)"/>
       <path id="DejaVuSerif-63" d="M 3291 997 
Q 3169 466 2822 187 
Q 2475 -91 1925 -91 
Q 1200 -91 759 389 
Q 319 869 319 1663 
Q 319 2459 759 2936 
Q 1200 3413 1925 3413 
Q 2241 3413 2553 3339 
Q 2866 3266 3181 3116 
L 3181 2266 
L 2847 2266 
Q 2781 2703 2561 2903 
Q 2341 3103 1931 3103 
Q 1466 3103 1228 2742 
Q 991 2381 991 1663 
Q 991 944 1227 581 
Q 1463 219 1931 219 
Q 2303 219 2525 412 
Q 2747 606 2828 997 
L 3291 997 
z
" transform="scale(0.015625)"/>
       <path id="DejaVuSerif-6f" d="M 1925 219 
Q 2388 219 2623 584 
Q 2859 950 2859 1663 
Q 2859 2375 2623 2739 
Q 2388 3103 1925 3103 
Q 1463 3103 1227 2739 
Q 991 2375 991 1663 
Q 991 950 1228 584 
Q 1466 219 1925 219 
z
M 1925 -91 
Q 1200 -91 759 389 
Q 319 869 319 1663 
Q 319 2456 758 2934 
Q 1197 3413 1925 3413 
Q 2653 3413 3092 2934 
Q 3531 2456 3531 1663 
Q 3531 869 3092 389 
Q 2653 -91 1925 -91 
z
" transform="scale(0.015625)"/>
       <path id="DejaVuSerif-6e" d="M 263 0 
L 263 331 
L 781 331 
L 781 2988 
L 231 2988 
L 231 3322 
L 1356 3322 
L 1356 2731 
Q 1516 3069 1770 3241 
Q 2025 3413 2363 3413 
Q 2913 3413 3172 3097 
Q 3431 2781 3431 2113 
L 3431 331 
L 3944 331 
L 3944 0 
L 2356 0 
L 2356 331 
L 2853 331 
L 2853 1931 
Q 2853 2541 2703 2767 
Q 2553 2994 2175 2994 
Q 1775 2994 1565 2701 
Q 1356 2409 1356 1850 
L 1356 331 
L 1856 331 
L 1856 0 
L 263 0 
z
" transform="scale(0.015625)"/>
       <path id="DejaVuSerif-74" d="M 691 2988 
L 184 2988 
L 184 3322 
L 691 3322 
L 691 4353 
L 1269 4353 
L 1269 3322 
L 2350 3322 
L 2350 2988 
L 1269 2988 
L 1269 878 
Q 1269 456 1350 337 
Q 1431 219 1650 219 
Q 1875 219 1978 351 
Q 2081 484 2088 781 
L 2522 781 
Q 2497 328 2275 118 
Q 2053 -91 1600 -91 
Q 1103 -91 897 129 
Q 691 350 691 878 
L 691 2988 
z
" transform="scale(0.015625)"/>
       <path id="DejaVuSerif-69" d="M 622 4353 
Q 622 4497 726 4603 
Q 831 4709 978 4709 
Q 1122 4709 1226 4603 
Q 1331 4497 1331 4353 
Q 1331 4206 1228 4103 
Q 1125 4000 978 4000 
Q 831 4000 726 4103 
Q 622 4206 622 4353 
z
M 1356 331 
L 1900 331 
L 1900 0 
L 231 0 
L 231 331 
L 781 331 
L 781 2988 
L 231 2988 
L 231 3322 
L 1356 3322 
L 1356 331 
z
" transform="scale(0.015625)"/>
       <path id="DejaVuSerif-79" d="M 1381 -609 
L 1600 -56 
L 359 2988 
L -19 2988 
L -19 3322 
L 1509 3322 
L 1509 2988 
L 978 2988 
L 1913 703 
L 2847 2988 
L 2350 2988 
L 2350 3322 
L 3597 3322 
L 3597 2988 
L 3225 2988 
L 1703 -750 
Q 1547 -1138 1356 -1280 
Q 1166 -1422 819 -1422 
Q 672 -1422 517 -1397 
Q 363 -1372 206 -1325 
L 206 -691 
L 500 -691 
Q 519 -903 608 -995 
Q 697 -1088 884 -1088 
Q 1056 -1088 1161 -992 
Q 1266 -897 1381 -609 
z
" transform="scale(0.015625)"/>
      </defs>
      <use xlink:href="#DejaVuSerif-61"/>
      <use xlink:href="#DejaVuSerif-76" x="59.619141"/>
      <use xlink:href="#DejaVuSerif-65" x="116.113281"/>
      <use xlink:href="#DejaVuSerif-72" x="175.292969"/>
      <use xlink:href="#DejaVuSerif-61" x="223.095703"/>
      <use xlink:href="#DejaVuSerif-67" x="282.714844"/>
      <use xlink:href="#DejaVuSerif-65" x="346.728516"/>
      <use xlink:href="#DejaVuSerif-20" x="405.908203"/>
      <use xlink:href="#DejaVuSerif-63" x="437.695312"/>
      <use xlink:href="#DejaVuSerif-6f" x="493.701172"/>
      <use xlink:href="#DejaVuSerif-6e" x="553.90625"/>
      <use xlink:href="#DejaVuSerif-6e" x="618.310547"/>
      <use xlink:href="#DejaVuSerif-65" x="682.714844"/>
      <use xlink:href="#DejaVuSerif-63" x="741.894531"/>
      <use xlink:href="#DejaVuSerif-74" x="797.900391"/>
      <use xlink:href="#DejaVuSerif-69" x="838.085938"/>
      <use xlink:href="#DejaVuSerif-76" x="870.068359"/>
      <use xlink:href="#DejaVuSerif-69" x="926.5625"/>
      <use xlink:href="#DejaVuSerif-74" x="958.544922"/>
      <use xlink:href="#DejaVuSerif-79" x="998.730469"/>
     </g>
    </g>
   </g>
   <g id="line2d_12">
    <path d="M 73.934006 154.733255 
L 73.934006 25.622201 
" clip-path="url(#pea727754aa)" style="fill: none; stroke: #424242; stroke-width: 2.7; stroke-linecap: square"/>
   </g>
   <g id="line2d_13">
    <path d="M 150.965303 210.57546 
L 150.965303 164.408391 
" clip-path="url(#pea727754aa)" style="fill: none; stroke: #424242; stroke-width: 2.7; stroke-linecap: square"/>
   </g>
   <g id="line2d_14">
    <path d="M 227.9966 191.766654 
L 227.9966 29.882681 
" clip-path="url(#pea727754aa)" style="fill: none; stroke: #424242; stroke-width: 2.7; stroke-linecap: square"/>
   </g>
   <g id="line2d_15">
    <path d="M 104.746525 202.312417 
L 104.746525 142.921614 
" clip-path="url(#pea727754aa)" style="fill: none; stroke: #424242; stroke-width: 2.7; stroke-linecap: square"/>
   </g>
   <g id="line2d_16">
    <path d="M 181.777822 229.842529 
L 181.777822 181.421238 
" clip-path="url(#pea727754aa)" style="fill: none; stroke: #424242; stroke-width: 2.7; stroke-linecap: square"/>
   </g>
   <g id="line2d_17">
    <path d="M 258.809119 221.649227 
L 258.809119 112.128102 
" clip-path="url(#pea727754aa)" style="fill: none; stroke: #424242; stroke-width: 2.7; stroke-linecap: square"/>
   </g>
   <g id="line2d_18">
    <path d="M 73.934006 14.978127 
L 104.746525 14.978127 
" clip-path="url(#pea727754aa)" style="fill: none; stroke: #000000; stroke-linecap: square"/>
    <defs>
     <path id="m833e2dbeca" d="M 0 3 
L 0 -3 
" style="stroke: #000000"/>
    </defs>
    <g clip-path="url(#pea727754aa)">
     <use xlink:href="#m833e2dbeca" x="73.934006" y="14.978127" style="stroke: #000000"/>
     <use xlink:href="#m833e2dbeca" x="104.746525" y="14.978127" style="stroke: #000000"/>
    </g>
   </g>
   <g id="line2d_19">
    <path d="M 89.340265 14.978127 
" clip-path="url(#pea727754aa)" style="fill: none; stroke: #ffffff; stroke-width: 1.5; stroke-linecap: square"/>
    <defs>
     <path id="m40048823b2" d="M 0 2.5 
C 0.663008 2.5 1.29895 2.236584 1.767767 1.767767 
C 2.236584 1.29895 2.5 0.663008 2.5 0 
C 2.5 -0.663008 2.236584 -1.29895 1.767767 -1.767767 
C 1.29895 -2.236584 0.663008 -2.5 0 -2.5 
C -0.663008 -2.5 -1.29895 -2.236584 -1.767767 -1.767767 
C -2.236584 -1.29895 -2.5 -0.663008 -2.5 0 
C -2.5 0.663008 -2.236584 1.29895 -1.767767 1.767767 
C -1.29895 2.236584 -0.663008 2.5 0 2.5 
z
" style="stroke: #ffffff"/>
    </defs>
    <g clip-path="url(#pea727754aa)">
     <use xlink:href="#m40048823b2" x="89.340265" y="14.978127" style="fill: #ffffff; stroke: #ffffff"/>
    </g>
   </g>
   <g id="line2d_20">
    <path d="M 89.340265 14.978127 
" clip-path="url(#pea727754aa)" style="fill: none; stroke: #000000; stroke-width: 1.5; stroke-linecap: square"/>
    <defs>
     <path id="m273ae4c7ab" d="M 0 -2.5 
L 0 0 
L -2.165064 -1.25 
L 0 0 
L -2.165064 1.25 
L 0 0 
L -0 2.5 
L 0 0 
L 2.165064 1.25 
L 0 0 
L 2.165064 -1.25 
L 0 0 
z
" style="stroke: #000000; stroke-linejoin: bevel"/>
    </defs>
    <g clip-path="url(#pea727754aa)">
     <use xlink:href="#m273ae4c7ab" x="89.340265" y="14.978127" style="stroke: #000000; stroke-linejoin: bevel"/>
    </g>
   </g>
   <g id="patch_9">
    <path d="M 47.743365 238.503687 
L 47.743365 3.00024 
" style="fill: none; stroke: #000000; stroke-width: 0.8; stroke-linejoin: miter; stroke-linecap: square"/>
   </g>
   <g id="patch_10">
    <path d="M 284.99976 238.503687 
L 284.99976 3.00024 
" style="fill: none; stroke: #000000; stroke-width: 0.8; stroke-linejoin: miter; stroke-linecap: square"/>
   </g>
   <g id="patch_11">
    <path d="M 47.743365 238.503687 
L 284.99976 238.503687 
" style="fill: none; stroke: #000000; stroke-width: 0.8; stroke-linejoin: miter; stroke-linecap: square"/>
   </g>
   <g id="patch_12">
    <path d="M 47.743365 3.00024 
L 284.99976 3.00024 
" style="fill: none; stroke: #000000; stroke-width: 0.8; stroke-linejoin: miter; stroke-linecap: square"/>
   </g>
   <g id="text_13">
    <g id="patch_13">
     <path d="M 50.831057 26.676906 
L 68.279494 26.676906 
L 68.279494 6.035343 
L 50.831057 6.035343 
z
" style="fill: #d6e1ff; stroke: #d6e1ff; stroke-linejoin: miter"/>
    </g>
    <!-- A -->
    <g transform="translate(54.861057 19.943312)scale(0.13 -0.13)">
     <defs>
      <path id="DejaVuSerif-41" d="M 1281 1691 
L 2994 1691 
L 2138 3909 
L 1281 1691 
z
M -38 0 
L -38 331 
L 372 331 
L 2034 4666 
L 2559 4666 
L 4225 331 
L 4684 331 
L 4684 0 
L 2988 0 
L 2988 331 
L 3506 331 
L 3116 1356 
L 1153 1356 
L 763 331 
L 1275 331 
L 1275 0 
L -38 0 
z
" transform="scale(0.015625)"/>
     </defs>
     <use xlink:href="#DejaVuSerif-41"/>
    </g>
   </g>
   <g id="legend_1">
    <g id="patch_14">
     <path d="M 76.845781 280.604377 
L 255.897344 280.604377 
Q 257.897344 280.604377 257.897344 278.604377 
L 257.897344 264.926252 
Q 257.897344 262.926252 255.897344 262.926252 
L 76.845781 262.926252 
Q 74.845781 262.926252 74.845781 264.926252 
L 74.845781 278.604377 
Q 74.845781 280.604377 76.845781 280.604377 
z
" style="fill: #ffffff; opacity: 0.8; stroke: #cccccc; stroke-linejoin: miter"/>
    </g>
    <g id="patch_15">
     <path d="M 78.845781 274.524689 
L 98.845781 274.524689 
L 98.845781 267.524689 
L 78.845781 267.524689 
z
" style="fill: #3274a1"/>
    </g>
    <g id="text_14">
     <!-- Funded -->
     <g transform="translate(106.845781 274.524689)scale(0.1 -0.1)">
      <defs>
       <path id="DejaVuSerif-46" d="M 353 0 
L 353 331 
L 947 331 
L 947 4331 
L 353 4331 
L 353 4666 
L 4172 4666 
L 4172 3628 
L 3788 3628 
L 3788 4281 
L 1581 4281 
L 1581 2719 
L 3175 2719 
L 3175 3303 
L 3559 3303 
L 3559 1753 
L 3175 1753 
L 3175 2338 
L 1581 2338 
L 1581 331 
L 2328 331 
L 2328 0 
L 353 0 
z
" transform="scale(0.015625)"/>
       <path id="DejaVuSerif-75" d="M 2266 3322 
L 3341 3322 
L 3341 331 
L 3884 331 
L 3884 0 
L 2766 0 
L 2766 588 
Q 2606 256 2353 82 
Q 2100 -91 1766 -91 
Q 1213 -91 952 223 
Q 691 538 691 1209 
L 691 2988 
L 172 2988 
L 172 3322 
L 1269 3322 
L 1269 1388 
Q 1269 781 1417 556 
Q 1566 331 1947 331 
Q 2347 331 2556 625 
Q 2766 919 2766 1478 
L 2766 2988 
L 2266 2988 
L 2266 3322 
z
" transform="scale(0.015625)"/>
       <path id="DejaVuSerif-64" d="M 3359 331 
L 3909 331 
L 3909 0 
L 2784 0 
L 2784 519 
Q 2616 206 2355 57 
Q 2094 -91 1709 -91 
Q 1097 -91 708 395 
Q 319 881 319 1663 
Q 319 2444 706 2928 
Q 1094 3413 1709 3413 
Q 2094 3413 2355 3264 
Q 2616 3116 2784 2803 
L 2784 4531 
L 2241 4531 
L 2241 4863 
L 3359 4863 
L 3359 331 
z
M 2784 1497 
L 2784 1825 
Q 2784 2422 2554 2737 
Q 2325 3053 1888 3053 
Q 1444 3053 1217 2703 
Q 991 2353 991 1663 
Q 991 975 1217 622 
Q 1444 269 1888 269 
Q 2325 269 2554 583 
Q 2784 897 2784 1497 
z
" transform="scale(0.015625)"/>
      </defs>
      <use xlink:href="#DejaVuSerif-46"/>
      <use xlink:href="#DejaVuSerif-75" x="69.384766"/>
      <use xlink:href="#DejaVuSerif-6e" x="133.789062"/>
      <use xlink:href="#DejaVuSerif-64" x="198.193359"/>
      <use xlink:href="#DejaVuSerif-65" x="262.207031"/>
      <use xlink:href="#DejaVuSerif-64" x="321.386719"/>
     </g>
    </g>
    <g id="patch_16">
     <path d="M 165.387969 274.524689 
L 185.387969 274.524689 
L 185.387969 267.524689 
L 165.387969 267.524689 
z
" style="fill: #e1812c"/>
    </g>
    <g id="text_15">
     <!-- Not Funded -->
     <g transform="translate(193.387969 274.524689)scale(0.1 -0.1)">
      <defs>
       <path id="DejaVuSerif-4e" d="M 313 0 
L 313 331 
L 941 331 
L 941 4331 
L 313 4331 
L 313 4666 
L 1509 4666 
L 4306 984 
L 4306 4331 
L 3681 4331 
L 3681 4666 
L 5319 4666 
L 5319 4331 
L 4691 4331 
L 4691 -91 
L 4313 -91 
L 1325 3841 
L 1325 331 
L 1953 331 
L 1953 0 
L 313 0 
z
" transform="scale(0.015625)"/>
      </defs>
      <use xlink:href="#DejaVuSerif-4e"/>
      <use xlink:href="#DejaVuSerif-6f" x="87.5"/>
      <use xlink:href="#DejaVuSerif-74" x="147.705078"/>
      <use xlink:href="#DejaVuSerif-20" x="187.890625"/>
      <use xlink:href="#DejaVuSerif-46" x="219.677734"/>
      <use xlink:href="#DejaVuSerif-75" x="289.0625"/>
      <use xlink:href="#DejaVuSerif-6e" x="353.466797"/>
      <use xlink:href="#DejaVuSerif-64" x="417.871094"/>
      <use xlink:href="#DejaVuSerif-65" x="481.884766"/>
      <use xlink:href="#DejaVuSerif-64" x="541.064453"/>
     </g>
    </g>
   </g>
  </g>
  <g id="axes_2">
   <g id="patch_17">
    <path d="M 47.743365 408.179447 
L 150.508582 408.179447 
L 150.508582 290.427724 
L 47.743365 290.427724 
z
" style="fill: #ffffff"/>
   </g>
   <g id="patch_18">
    <path d="M 52.414511 408.179447 
L 93.935811 408.179447 
L 93.935811 343.080934 
L 52.414511 343.080934 
z
" clip-path="url(#p650b8d8b9a)" style="fill: #3274a1"/>
   </g>
   <g id="patch_19">
    <path d="M 104.316136 408.179447 
L 145.837436 408.179447 
L 145.837436 389.315739 
L 104.316136 389.315739 
z
" clip-path="url(#p650b8d8b9a)" style="fill: #e1812c"/>
   </g>
   <g id="matplotlib.axis_3">
    <g id="xtick_4">
     <g id="line2d_21">
      <g>
       <use xlink:href="#m76a4010982" x="73.175161" y="408.179447" style="stroke: #000000; stroke-width: 0.8"/>
      </g>
     </g>
    </g>
    <g id="xtick_5">
     <g id="line2d_22">
      <g>
       <use xlink:href="#m76a4010982" x="125.076786" y="408.179447" style="stroke: #000000; stroke-width: 0.8"/>
      </g>
     </g>
    </g>
    <g id="text_16">
     <!-- Government Funding -->
     <g transform="translate(45.075974 426.777885)scale(0.1 -0.1)">
      <defs>
       <path id="DejaVuSerif-47" d="M 4097 3272 
Q 3988 3856 3641 4136 
Q 3294 4416 2675 4416 
Q 1869 4416 1472 3897 
Q 1075 3378 1075 2328 
Q 1075 1300 1484 772 
Q 1894 244 2688 244 
Q 3041 244 3362 331 
Q 3684 419 3975 594 
L 3975 1797 
L 3097 1797 
L 3097 2131 
L 4609 2131 
L 4609 391 
Q 4194 150 3714 29 
Q 3234 -91 2688 -91 
Q 1631 -91 995 570 
Q 359 1231 359 2328 
Q 359 3434 996 4092 
Q 1634 4750 2713 4750 
Q 3113 4750 3539 4658 
Q 3966 4566 4447 4378 
L 4447 3272 
L 4097 3272 
z
" transform="scale(0.015625)"/>
       <path id="DejaVuSerif-6d" d="M 3316 2675 
Q 3481 3041 3739 3227 
Q 3997 3413 4341 3413 
Q 4863 3413 5119 3089 
Q 5375 2766 5375 2113 
L 5375 331 
L 5894 331 
L 5894 0 
L 4300 0 
L 4300 331 
L 4800 331 
L 4800 2047 
Q 4800 2556 4650 2772 
Q 4500 2988 4153 2988 
Q 3769 2988 3567 2697 
Q 3366 2406 3366 1850 
L 3366 331 
L 3866 331 
L 3866 0 
L 2291 0 
L 2291 331 
L 2791 331 
L 2791 2069 
Q 2791 2566 2641 2777 
Q 2491 2988 2144 2988 
Q 1759 2988 1557 2697 
Q 1356 2406 1356 1850 
L 1356 331 
L 1856 331 
L 1856 0 
L 263 0 
L 263 331 
L 781 331 
L 781 2994 
L 231 2994 
L 231 3322 
L 1356 3322 
L 1356 2731 
Q 1516 3063 1762 3238 
Q 2009 3413 2322 3413 
Q 2709 3413 2968 3220 
Q 3228 3028 3316 2675 
z
" transform="scale(0.015625)"/>
      </defs>
      <use xlink:href="#DejaVuSerif-47"/>
      <use xlink:href="#DejaVuSerif-6f" x="79.882812"/>
      <use xlink:href="#DejaVuSerif-76" x="140.087891"/>
      <use xlink:href="#DejaVuSerif-65" x="196.582031"/>
      <use xlink:href="#DejaVuSerif-72" x="255.761719"/>
      <use xlink:href="#DejaVuSerif-6e" x="303.564453"/>
      <use xlink:href="#DejaVuSerif-6d" x="367.96875"/>
      <use xlink:href="#DejaVuSerif-65" x="462.792969"/>
      <use xlink:href="#DejaVuSerif-6e" x="521.972656"/>
      <use xlink:href="#DejaVuSerif-74" x="586.376953"/>
      <use xlink:href="#DejaVuSerif-20" x="626.5625"/>
      <use xlink:href="#DejaVuSerif-46" x="658.349609"/>
      <use xlink:href="#DejaVuSerif-75" x="727.734375"/>
      <use xlink:href="#DejaVuSerif-6e" x="792.138672"/>
      <use xlink:href="#DejaVuSerif-64" x="856.542969"/>
      <use xlink:href="#DejaVuSerif-69" x="920.556641"/>
      <use xlink:href="#DejaVuSerif-6e" x="952.539062"/>
      <use xlink:href="#DejaVuSerif-67" x="1016.943359"/>
     </g>
    </g>
   </g>
   <g id="matplotlib.axis_4">
    <g id="ytick_9">
     <g id="line2d_23">
      <g>
       <use xlink:href="#mca12a93a4d" x="47.743365" y="408.179447" style="stroke: #000000; stroke-width: 0.8"/>
      </g>
     </g>
     <g id="text_17">
      <!-- 0 -->
      <g transform="translate(34.380865 411.978666)scale(0.1 -0.1)">
       <use xlink:href="#DejaVuSerif-30"/>
      </g>
     </g>
    </g>
    <g id="ytick_10">
     <g id="line2d_24">
      <g>
       <use xlink:href="#mca12a93a4d" x="47.743365" y="368.928873" style="stroke: #000000; stroke-width: 0.8"/>
      </g>
     </g>
     <g id="text_18">
      <!-- 5 -->
      <g transform="translate(34.380865 372.728092)scale(0.1 -0.1)">
       <use xlink:href="#DejaVuSerif-35"/>
      </g>
     </g>
    </g>
    <g id="ytick_11">
     <g id="line2d_25">
      <g>
       <use xlink:href="#mca12a93a4d" x="47.743365" y="329.678298" style="stroke: #000000; stroke-width: 0.8"/>
      </g>
     </g>
     <g id="text_19">
      <!-- 10 -->
      <g transform="translate(28.018365 333.477517)scale(0.1 -0.1)">
       <use xlink:href="#DejaVuSerif-31"/>
       <use xlink:href="#DejaVuSerif-30" x="63.623047"/>
      </g>
     </g>
    </g>
    <g id="ytick_12">
     <g id="line2d_26">
      <g>
       <use xlink:href="#mca12a93a4d" x="47.743365" y="290.427724" style="stroke: #000000; stroke-width: 0.8"/>
      </g>
     </g>
     <g id="text_20">
      <!-- 15 -->
      <g transform="translate(28.018365 294.226943)scale(0.1 -0.1)">
       <use xlink:href="#DejaVuSerif-31"/>
       <use xlink:href="#DejaVuSerif-35" x="63.623047"/>
      </g>
     </g>
    </g>
    <g id="text_21">
     <!-- average -->
     <g transform="translate(10.45649 369.600461)rotate(-90)scale(0.1 -0.1)">
      <use xlink:href="#DejaVuSerif-61"/>
      <use xlink:href="#DejaVuSerif-76" x="59.619141"/>
      <use xlink:href="#DejaVuSerif-65" x="116.113281"/>
      <use xlink:href="#DejaVuSerif-72" x="175.292969"/>
      <use xlink:href="#DejaVuSerif-61" x="223.095703"/>
      <use xlink:href="#DejaVuSerif-67" x="282.714844"/>
      <use xlink:href="#DejaVuSerif-65" x="346.728516"/>
     </g>
     <!-- LMIC-HIC connectivity -->
     <g transform="translate(21.79649 407.861398)rotate(-90)scale(0.1 -0.1)">
      <use xlink:href="#DejaVuSerif-4c"/>
      <use xlink:href="#DejaVuSerif-4d" x="66.40625"/>
      <use xlink:href="#DejaVuSerif-49" x="168.798828"/>
      <use xlink:href="#DejaVuSerif-43" x="208.300781"/>
      <use xlink:href="#DejaVuSerif-2d" x="284.814453"/>
      <use xlink:href="#DejaVuSerif-48" x="318.603516"/>
      <use xlink:href="#DejaVuSerif-49" x="405.810547"/>
      <use xlink:href="#DejaVuSerif-43" x="445.3125"/>
      <use xlink:href="#DejaVuSerif-20" x="521.826172"/>
      <use xlink:href="#DejaVuSerif-63" x="553.613281"/>
      <use xlink:href="#DejaVuSerif-6f" x="609.619141"/>
      <use xlink:href="#DejaVuSerif-6e" x="669.824219"/>
      <use xlink:href="#DejaVuSerif-6e" x="734.228516"/>
      <use xlink:href="#DejaVuSerif-65" x="798.632812"/>
      <use xlink:href="#DejaVuSerif-63" x="857.8125"/>
      <use xlink:href="#DejaVuSerif-74" x="913.818359"/>
      <use xlink:href="#DejaVuSerif-69" x="954.003906"/>
      <use xlink:href="#DejaVuSerif-76" x="985.986328"/>
      <use xlink:href="#DejaVuSerif-69" x="1042.480469"/>
      <use xlink:href="#DejaVuSerif-74" x="1074.462891"/>
      <use xlink:href="#DejaVuSerif-79" x="1114.648438"/>
     </g>
    </g>
   </g>
   <g id="line2d_27">
    <path d="M 73.175161 378.50697 
L 73.175161 302.470949 
" clip-path="url(#p650b8d8b9a)" style="fill: none; stroke: #424242; stroke-width: 2.7; stroke-linecap: square"/>
   </g>
   <g id="line2d_28">
    <path d="M 125.076786 397.165853 
L 125.076786 375.950039 
" clip-path="url(#p650b8d8b9a)" style="fill: none; stroke: #424242; stroke-width: 2.7; stroke-linecap: square"/>
   </g>
   <g id="line2d_29">
    <path d="M 73.175161 296.707816 
L 125.076786 296.707816 
" clip-path="url(#p650b8d8b9a)" style="fill: none; stroke: #000000; stroke-linecap: square"/>
    <g clip-path="url(#p650b8d8b9a)">
     <use xlink:href="#m833e2dbeca" x="73.175161" y="296.707816" style="stroke: #000000"/>
     <use xlink:href="#m833e2dbeca" x="125.076786" y="296.707816" style="stroke: #000000"/>
    </g>
   </g>
   <g id="line2d_30">
    <path d="M 93.935811 296.707816 
" clip-path="url(#p650b8d8b9a)" style="fill: none; stroke: #ffffff; stroke-width: 1.5; stroke-linecap: square"/>
    <g clip-path="url(#p650b8d8b9a)">
     <use xlink:href="#m40048823b2" x="93.935811" y="296.707816" style="fill: #ffffff; stroke: #ffffff"/>
    </g>
   </g>
   <g id="line2d_31">
    <path d="M 104.316136 296.707816 
" clip-path="url(#p650b8d8b9a)" style="fill: none; stroke: #ffffff; stroke-width: 1.5; stroke-linecap: square"/>
    <g clip-path="url(#p650b8d8b9a)">
     <use xlink:href="#m40048823b2" x="104.316136" y="296.707816" style="fill: #ffffff; stroke: #ffffff"/>
    </g>
   </g>
   <g id="line2d_32">
    <path d="M 93.935811 296.707816 
" clip-path="url(#p650b8d8b9a)" style="fill: none; stroke: #000000; stroke-width: 1.5; stroke-linecap: square"/>
    <g clip-path="url(#p650b8d8b9a)">
     <use xlink:href="#m273ae4c7ab" x="93.935811" y="296.707816" style="stroke: #000000; stroke-linejoin: bevel"/>
    </g>
   </g>
   <g id="line2d_33">
    <path d="M 104.316136 296.707816 
" clip-path="url(#p650b8d8b9a)" style="fill: none; stroke: #000000; stroke-width: 1.5; stroke-linecap: square"/>
    <g clip-path="url(#p650b8d8b9a)">
     <use xlink:href="#m273ae4c7ab" x="104.316136" y="296.707816" style="stroke: #000000; stroke-linejoin: bevel"/>
    </g>
   </g>
   <g id="patch_20">
    <path d="M 47.743365 408.179447 
L 47.743365 290.427724 
" style="fill: none; stroke: #000000; stroke-width: 0.8; stroke-linejoin: miter; stroke-linecap: square"/>
   </g>
   <g id="patch_21">
    <path d="M 150.508582 408.179447 
L 150.508582 290.427724 
" style="fill: none; stroke: #000000; stroke-width: 0.8; stroke-linejoin: miter; stroke-linecap: square"/>
   </g>
   <g id="patch_22">
    <path d="M 47.743365 408.179447 
L 150.508582 408.179447 
" style="fill: none; stroke: #000000; stroke-width: 0.8; stroke-linejoin: miter; stroke-linecap: square"/>
   </g>
   <g id="patch_23">
    <path d="M 47.743365 290.427724 
L 150.508582 290.427724 
" style="fill: none; stroke: #000000; stroke-width: 0.8; stroke-linejoin: miter; stroke-linecap: square"/>
   </g>
   <g id="text_22">
    <g id="patch_24">
     <path d="M 49.879278 312.926873 
L 67.492247 312.926873 
L 67.492247 292.28531 
L 49.879278 292.28531 
z
" style="fill: #d6e1ff; stroke: #d6e1ff; stroke-linejoin: miter"/>
    </g>
    <!-- B -->
    <g transform="translate(53.909278 306.193279)scale(0.13 -0.13)">
     <defs>
      <path id="DejaVuSerif-42" d="M 1581 331 
L 2516 331 
Q 3078 331 3337 575 
Q 3597 819 3597 1350 
Q 3597 1878 3339 2120 
Q 3081 2363 2516 2363 
L 1581 2363 
L 1581 331 
z
M 1581 2694 
L 2375 2694 
Q 2888 2694 3123 2891 
Q 3359 3088 3359 3513 
Q 3359 3941 3123 4136 
Q 2888 4331 2375 4331 
L 1581 4331 
L 1581 2694 
z
M 353 0 
L 353 331 
L 947 331 
L 947 4331 
L 353 4331 
L 353 4666 
L 2656 4666 
Q 3363 4666 3720 4377 
Q 4078 4088 4078 3513 
Q 4078 3097 3829 2850 
Q 3581 2603 3103 2547 
Q 3697 2472 4005 2167 
Q 4313 1863 4313 1350 
Q 4313 656 3875 328 
Q 3438 0 2509 0 
L 353 0 
z
" transform="scale(0.015625)"/>
     </defs>
     <use xlink:href="#DejaVuSerif-42"/>
    </g>
   </g>
   <g id="legend_2"/>
  </g>
  <g id="axes_3">
   <g id="patch_25">
    <path d="M 182.234542 408.179447 
L 284.99976 408.179447 
L 284.99976 290.427724 
L 182.234542 290.427724 
z
" style="fill: #ffffff"/>
   </g>
   <g id="patch_26">
    <path d="M 186.905689 408.179447 
L 228.426989 408.179447 
L 228.426989 354.468135 
L 186.905689 354.468135 
z
" clip-path="url(#paec832ceee)" style="fill: #3274a1"/>
   </g>
   <g id="patch_27">
    <path d="M 238.807314 408.179447 
L 280.328614 408.179447 
L 280.328614 391.093903 
L 238.807314 391.093903 
z
" clip-path="url(#paec832ceee)" style="fill: #e1812c"/>
   </g>
   <g id="matplotlib.axis_5">
    <g id="xtick_6">
     <g id="line2d_34">
      <g>
       <use xlink:href="#m76a4010982" x="207.666339" y="408.179447" style="stroke: #000000; stroke-width: 0.8"/>
      </g>
     </g>
    </g>
    <g id="xtick_7">
     <g id="line2d_35">
      <g>
       <use xlink:href="#m76a4010982" x="259.567964" y="408.179447" style="stroke: #000000; stroke-width: 0.8"/>
      </g>
     </g>
    </g>
    <g id="text_23">
     <!-- Charity Funding -->
     <g transform="translate(192.046058 426.777885)scale(0.1 -0.1)">
      <defs>
       <path id="DejaVuSerif-68" d="M 263 0 
L 263 331 
L 781 331 
L 781 4531 
L 231 4531 
L 231 4863 
L 1356 4863 
L 1356 2731 
Q 1516 3069 1770 3241 
Q 2025 3413 2363 3413 
Q 2913 3413 3172 3097 
Q 3431 2781 3431 2113 
L 3431 331 
L 3944 331 
L 3944 0 
L 2356 0 
L 2356 331 
L 2853 331 
L 2853 1931 
Q 2853 2541 2704 2764 
Q 2556 2988 2175 2988 
Q 1775 2988 1565 2697 
Q 1356 2406 1356 1850 
L 1356 331 
L 1856 331 
L 1856 0 
L 263 0 
z
" transform="scale(0.015625)"/>
      </defs>
      <use xlink:href="#DejaVuSerif-43"/>
      <use xlink:href="#DejaVuSerif-68" x="76.513672"/>
      <use xlink:href="#DejaVuSerif-61" x="140.917969"/>
      <use xlink:href="#DejaVuSerif-72" x="200.537109"/>
      <use xlink:href="#DejaVuSerif-69" x="248.339844"/>
      <use xlink:href="#DejaVuSerif-74" x="280.322266"/>
      <use xlink:href="#DejaVuSerif-79" x="320.507812"/>
      <use xlink:href="#DejaVuSerif-20" x="377.001953"/>
      <use xlink:href="#DejaVuSerif-46" x="408.789062"/>
      <use xlink:href="#DejaVuSerif-75" x="478.173828"/>
      <use xlink:href="#DejaVuSerif-6e" x="542.578125"/>
      <use xlink:href="#DejaVuSerif-64" x="606.982422"/>
      <use xlink:href="#DejaVuSerif-69" x="670.996094"/>
      <use xlink:href="#DejaVuSerif-6e" x="702.978516"/>
      <use xlink:href="#DejaVuSerif-67" x="767.382812"/>
     </g>
    </g>
   </g>
   <g id="matplotlib.axis_6">
    <g id="ytick_13">
     <g id="line2d_36">
      <g>
       <use xlink:href="#mca12a93a4d" x="182.234542" y="408.179447" style="stroke: #000000; stroke-width: 0.8"/>
      </g>
     </g>
     <g id="text_24">
      <!-- 0 -->
      <g transform="translate(168.872042 411.978666)scale(0.1 -0.1)">
       <use xlink:href="#DejaVuSerif-30"/>
      </g>
     </g>
    </g>
    <g id="ytick_14">
     <g id="line2d_37">
      <g>
       <use xlink:href="#mca12a93a4d" x="182.234542" y="368.928873" style="stroke: #000000; stroke-width: 0.8"/>
      </g>
     </g>
     <g id="text_25">
      <!-- 5 -->
      <g transform="translate(168.872042 372.728092)scale(0.1 -0.1)">
       <use xlink:href="#DejaVuSerif-35"/>
      </g>
     </g>
    </g>
    <g id="ytick_15">
     <g id="line2d_38">
      <g>
       <use xlink:href="#mca12a93a4d" x="182.234542" y="329.678298" style="stroke: #000000; stroke-width: 0.8"/>
      </g>
     </g>
     <g id="text_26">
      <!-- 10 -->
      <g transform="translate(162.509542 333.477517)scale(0.1 -0.1)">
       <use xlink:href="#DejaVuSerif-31"/>
       <use xlink:href="#DejaVuSerif-30" x="63.623047"/>
      </g>
     </g>
    </g>
    <g id="ytick_16">
     <g id="line2d_39">
      <g>
       <use xlink:href="#mca12a93a4d" x="182.234542" y="290.427724" style="stroke: #000000; stroke-width: 0.8"/>
      </g>
     </g>
     <g id="text_27">
      <!-- 15 -->
      <g transform="translate(162.509542 294.226943)scale(0.1 -0.1)">
       <use xlink:href="#DejaVuSerif-31"/>
       <use xlink:href="#DejaVuSerif-35" x="63.623047"/>
      </g>
     </g>
    </g>
   </g>
   <g id="line2d_40">
    <path d="M 207.666339 382.845612 
L 207.666339 320.151426 
" clip-path="url(#paec832ceee)" style="fill: none; stroke: #424242; stroke-width: 2.7; stroke-linecap: square"/>
   </g>
   <g id="line2d_41">
    <path d="M 259.567964 397.250856 
L 259.567964 381.396703 
" clip-path="url(#paec832ceee)" style="fill: none; stroke: #424242; stroke-width: 2.7; stroke-linecap: square"/>
   </g>
   <g id="line2d_42">
    <path d="M 207.666339 296.707816 
L 259.567964 296.707816 
" clip-path="url(#paec832ceee)" style="fill: none; stroke: #000000; stroke-linecap: square"/>
    <g clip-path="url(#paec832ceee)">
     <use xlink:href="#m833e2dbeca" x="207.666339" y="296.707816" style="stroke: #000000"/>
     <use xlink:href="#m833e2dbeca" x="259.567964" y="296.707816" style="stroke: #000000"/>
    </g>
   </g>
   <g id="line2d_43">
    <path d="M 233.617151 296.707816 
" clip-path="url(#paec832ceee)" style="fill: none; stroke: #ffffff; stroke-width: 1.5; stroke-linecap: square"/>
    <g clip-path="url(#paec832ceee)">
     <use xlink:href="#m40048823b2" x="233.617151" y="296.707816" style="fill: #ffffff; stroke: #ffffff"/>
    </g>
   </g>
   <g id="line2d_44">
    <path d="M 233.617151 296.707816 
" clip-path="url(#paec832ceee)" style="fill: none; stroke: #000000; stroke-width: 1.5; stroke-linecap: square"/>
    <g clip-path="url(#paec832ceee)">
     <use xlink:href="#m273ae4c7ab" x="233.617151" y="296.707816" style="stroke: #000000; stroke-linejoin: bevel"/>
    </g>
   </g>
   <g id="patch_28">
    <path d="M 182.234542 408.179447 
L 182.234542 290.427724 
" style="fill: none; stroke: #000000; stroke-width: 0.8; stroke-linejoin: miter; stroke-linecap: square"/>
   </g>
   <g id="patch_29">
    <path d="M 284.99976 408.179447 
L 284.99976 290.427724 
" style="fill: none; stroke: #000000; stroke-width: 0.8; stroke-linejoin: miter; stroke-linecap: square"/>
   </g>
   <g id="patch_30">
    <path d="M 182.234542 408.179447 
L 284.99976 408.179447 
" style="fill: none; stroke: #000000; stroke-width: 0.8; stroke-linejoin: miter; stroke-linecap: square"/>
   </g>
   <g id="patch_31">
    <path d="M 182.234542 290.427724 
L 284.99976 290.427724 
" style="fill: none; stroke: #000000; stroke-width: 0.8; stroke-linejoin: miter; stroke-linecap: square"/>
   </g>
   <g id="text_28">
    <g id="patch_32">
     <path d="M 184.370456 312.926873 
L 202.377487 312.926873 
L 202.377487 292.28531 
L 184.370456 292.28531 
z
" style="fill: #d6e1ff; stroke: #d6e1ff; stroke-linejoin: miter"/>
    </g>
    <!-- C -->
    <g transform="translate(188.400456 306.193279)scale(0.13 -0.13)">
     <use xlink:href="#DejaVuSerif-43"/>
    </g>
   </g>
   <g id="legend_3"/>
  </g>
 </g>
 <defs>
  <clipPath id="pea727754aa">
   <rect x="47.743365" y="3.00024" width="237.256395" height="235.503447"/>
  </clipPath>
  <clipPath id="p650b8d8b9a">
   <rect x="47.743365" y="290.427724" width="102.765217" height="117.751724"/>
  </clipPath>
  <clipPath id="paec832ceee">
   <rect x="182.234542" y="290.427724" width="102.765218" height="117.751724"/>
  </clipPath>
 </defs>
</svg>
